<?xml version="1.0" encoding="utf-8"?>
<!-- Generator: Adobe Illustrator 18.0.0, SVG Export Plug-In . SVG Version: 6.00 Build 0)  -->
<!DOCTYPE svg PUBLIC "-//W3C//DTD SVG 1.1//EN" "http://www.w3.org/Graphics/SVG/1.1/DTD/svg11.dtd">
<svg version="1.1" id="Layer_1" xmlns="http://www.w3.org/2000/svg" xmlns:xlink="http://www.w3.org/1999/xlink" x="0px" y="0px"
	 viewBox="0 0 435 195" enable-background="new 0 0 435 195" xml:space="preserve">
<g>
	<g>
		<g>
			<g>
				<g>
					<g>
						<polygon fill="#FFFFFF" stroke="#106580" stroke-width="3.1485" stroke-linejoin="round" stroke-miterlimit="10" points="
							345.5,147.8 333.5,147.8 333.5,53.9 96.2,53.9 96.2,147.8 84.2,147.8 84.2,41.9 345.5,41.9 						"/>
					</g>
					
						<rect x="106.2" y="63.9" fill="#FFFFFF" stroke="#106580" stroke-width="3.1485" stroke-linejoin="round" stroke-miterlimit="10" width="16.7" height="14.8"/>
					
						<rect x="122.9" y="63.9" fill="#FFFFFF" stroke="#106580" stroke-width="3.1485" stroke-linejoin="round" stroke-miterlimit="10" width="16.7" height="14.8"/>
					
						<rect x="139.6" y="63.9" fill="#FFFFFF" stroke="#106580" stroke-width="3.1485" stroke-linejoin="round" stroke-miterlimit="10" width="16.7" height="14.8"/>
					
						<rect x="156.3" y="63.9" fill="#FFFFFF" stroke="#106580" stroke-width="3.1485" stroke-linejoin="round" stroke-miterlimit="10" width="16.7" height="14.8"/>
					
						<rect x="173" y="63.9" fill="#FFFFFF" stroke="#106580" stroke-width="3.1485" stroke-linejoin="round" stroke-miterlimit="10" width="16.7" height="14.8"/>
					
						<rect x="189.7" y="63.9" fill="#FFFFFF" stroke="#106580" stroke-width="3.1485" stroke-linejoin="round" stroke-miterlimit="10" width="16.7" height="14.8"/>
					
						<rect x="206.4" y="63.9" fill="#FFFFFF" stroke="#106580" stroke-width="3.1485" stroke-linejoin="round" stroke-miterlimit="10" width="16.7" height="14.8"/>
					
						<rect x="223.2" y="63.9" fill="#FFFFFF" stroke="#106580" stroke-width="3.1485" stroke-linejoin="round" stroke-miterlimit="10" width="16.7" height="14.8"/>
					
						<rect x="239.9" y="63.9" fill="#FFFFFF" stroke="#106580" stroke-width="3.1485" stroke-linejoin="round" stroke-miterlimit="10" width="16.7" height="14.8"/>
					
						<rect x="256.6" y="63.9" fill="#FFFFFF" stroke="#106580" stroke-width="3.1485" stroke-linejoin="round" stroke-miterlimit="10" width="16.7" height="14.8"/>
					
						<rect x="273.3" y="63.9" fill="#FFFFFF" stroke="#106580" stroke-width="3.1485" stroke-linejoin="round" stroke-miterlimit="10" width="16.7" height="14.8"/>
					
						<rect x="290" y="63.9" fill="#FFFFFF" stroke="#106580" stroke-width="3.1485" stroke-linejoin="round" stroke-miterlimit="10" width="16.7" height="14.8"/>
					
						<rect x="306.7" y="63.9" fill="#FFFFFF" stroke="#106580" stroke-width="3.1485" stroke-linejoin="round" stroke-miterlimit="10" width="16.7" height="14.8"/>
					
						<rect x="106.2" y="78.7" fill="#FFFFFF" stroke="#106580" stroke-width="3.1485" stroke-linejoin="round" stroke-miterlimit="10" width="16.7" height="14.8"/>
					
						<rect x="122.9" y="78.7" fill="#FFFFFF" stroke="#106580" stroke-width="3.1485" stroke-linejoin="round" stroke-miterlimit="10" width="16.7" height="14.8"/>
					
						<rect x="139.6" y="78.7" fill="#FFFFFF" stroke="#106580" stroke-width="3.1485" stroke-linejoin="round" stroke-miterlimit="10" width="16.7" height="14.8"/>
					
						<rect x="156.3" y="78.7" fill="#FFFFFF" stroke="#106580" stroke-width="3.1485" stroke-linejoin="round" stroke-miterlimit="10" width="16.7" height="14.8"/>
					
						<rect x="173" y="78.7" fill="#FFFFFF" stroke="#106580" stroke-width="3.1485" stroke-linejoin="round" stroke-miterlimit="10" width="16.7" height="14.8"/>
					
						<rect x="189.7" y="78.7" fill="#FFFFFF" stroke="#106580" stroke-width="3.1485" stroke-linejoin="round" stroke-miterlimit="10" width="16.7" height="14.8"/>
					
						<rect x="206.4" y="78.7" fill="#FFFFFF" stroke="#106580" stroke-width="3.1485" stroke-linejoin="round" stroke-miterlimit="10" width="16.7" height="14.8"/>
					
						<rect x="223.2" y="78.7" fill="#FFFFFF" stroke="#106580" stroke-width="3.1485" stroke-linejoin="round" stroke-miterlimit="10" width="16.7" height="14.8"/>
					
						<rect x="239.9" y="78.7" fill="#FFFFFF" stroke="#106580" stroke-width="3.1485" stroke-linejoin="round" stroke-miterlimit="10" width="16.7" height="14.8"/>
					
						<rect x="256.6" y="78.7" fill="#FFFFFF" stroke="#106580" stroke-width="3.1485" stroke-linejoin="round" stroke-miterlimit="10" width="16.7" height="14.8"/>
					
						<rect x="273.3" y="78.7" fill="#FFFFFF" stroke="#106580" stroke-width="3.1485" stroke-linejoin="round" stroke-miterlimit="10" width="16.7" height="14.8"/>
					
						<rect x="290" y="78.7" fill="#FFFFFF" stroke="#106580" stroke-width="3.1485" stroke-linejoin="round" stroke-miterlimit="10" width="16.7" height="14.8"/>
					
						<rect x="306.7" y="78.7" fill="#FFFFFF" stroke="#106580" stroke-width="3.1485" stroke-linejoin="round" stroke-miterlimit="10" width="16.7" height="14.8"/>
					
						<rect x="106.2" y="93.5" fill="#FFFFFF" stroke="#106580" stroke-width="3.1485" stroke-linejoin="round" stroke-miterlimit="10" width="16.7" height="14.8"/>
					
						<rect x="122.9" y="93.5" fill="#FFFFFF" stroke="#106580" stroke-width="3.1485" stroke-linejoin="round" stroke-miterlimit="10" width="16.7" height="14.8"/>
					
						<rect x="139.6" y="93.5" fill="#FFFFFF" stroke="#106580" stroke-width="3.1485" stroke-linejoin="round" stroke-miterlimit="10" width="16.7" height="14.8"/>
					
						<rect x="156.3" y="93.5" fill="#FFFFFF" stroke="#106580" stroke-width="3.1485" stroke-linejoin="round" stroke-miterlimit="10" width="16.7" height="14.8"/>
					
						<rect x="173" y="93.5" fill="#FFFFFF" stroke="#106580" stroke-width="3.1485" stroke-linejoin="round" stroke-miterlimit="10" width="16.7" height="14.8"/>
					
						<rect x="189.7" y="93.5" fill="#FFFFFF" stroke="#106580" stroke-width="3.1485" stroke-linejoin="round" stroke-miterlimit="10" width="16.7" height="14.8"/>
					
						<rect x="206.4" y="93.5" fill="#FFFFFF" stroke="#106580" stroke-width="3.1485" stroke-linejoin="round" stroke-miterlimit="10" width="16.7" height="14.8"/>
					
						<rect x="223.2" y="93.5" fill="#FFFFFF" stroke="#106580" stroke-width="3.1485" stroke-linejoin="round" stroke-miterlimit="10" width="16.7" height="14.8"/>
					
						<rect x="239.9" y="93.5" fill="#FFFFFF" stroke="#106580" stroke-width="3.1485" stroke-linejoin="round" stroke-miterlimit="10" width="16.7" height="14.8"/>
					
						<rect x="256.6" y="93.5" fill="#FFFFFF" stroke="#106580" stroke-width="3.1485" stroke-linejoin="round" stroke-miterlimit="10" width="16.7" height="14.8"/>
					
						<rect x="273.3" y="93.5" fill="#FFFFFF" stroke="#106580" stroke-width="3.1485" stroke-linejoin="round" stroke-miterlimit="10" width="16.7" height="14.8"/>
					
						<rect x="290" y="93.5" fill="#FFFFFF" stroke="#106580" stroke-width="3.1485" stroke-linejoin="round" stroke-miterlimit="10" width="16.7" height="14.8"/>
					
						<rect x="306.7" y="93.5" fill="#FFFFFF" stroke="#106580" stroke-width="3.1485" stroke-linejoin="round" stroke-miterlimit="10" width="16.7" height="14.8"/>
					
						<rect x="106.2" y="108.3" fill="#FFFFFF" stroke="#106580" stroke-width="3.1485" stroke-linejoin="round" stroke-miterlimit="10" width="16.7" height="14.8"/>
					
						<rect x="122.9" y="108.3" fill="#FFFFFF" stroke="#106580" stroke-width="3.1485" stroke-linejoin="round" stroke-miterlimit="10" width="16.7" height="14.8"/>
					
						<rect x="139.6" y="108.3" fill="#FFFFFF" stroke="#106580" stroke-width="3.1485" stroke-linejoin="round" stroke-miterlimit="10" width="16.7" height="14.8"/>
					
						<rect x="156.3" y="108.3" fill="#FFFFFF" stroke="#106580" stroke-width="3.1485" stroke-linejoin="round" stroke-miterlimit="10" width="16.7" height="14.8"/>
					
						<rect x="173" y="108.3" fill="#FFFFFF" stroke="#106580" stroke-width="3.1485" stroke-linejoin="round" stroke-miterlimit="10" width="16.7" height="14.8"/>
					
						<rect x="189.7" y="108.3" fill="#FFFFFF" stroke="#106580" stroke-width="3.1485" stroke-linejoin="round" stroke-miterlimit="10" width="16.7" height="14.8"/>
					
						<rect x="206.4" y="108.3" fill="#FFFFFF" stroke="#106580" stroke-width="3.1485" stroke-linejoin="round" stroke-miterlimit="10" width="16.7" height="14.8"/>
					
						<rect x="223.2" y="108.3" fill="#FFFFFF" stroke="#106580" stroke-width="3.1485" stroke-linejoin="round" stroke-miterlimit="10" width="16.7" height="14.8"/>
					
						<rect x="239.9" y="108.3" fill="#FFFFFF" stroke="#106580" stroke-width="3.1485" stroke-linejoin="round" stroke-miterlimit="10" width="16.7" height="14.8"/>
					
						<rect x="256.6" y="108.3" fill="#FFFFFF" stroke="#106580" stroke-width="3.1485" stroke-linejoin="round" stroke-miterlimit="10" width="16.7" height="14.8"/>
					
						<rect x="273.3" y="108.3" fill="#FFFFFF" stroke="#106580" stroke-width="3.1485" stroke-linejoin="round" stroke-miterlimit="10" width="16.7" height="14.8"/>
					
						<rect x="290" y="108.3" fill="#FFFFFF" stroke="#106580" stroke-width="3.1485" stroke-linejoin="round" stroke-miterlimit="10" width="16.7" height="14.8"/>
					
						<rect x="306.7" y="108.3" fill="#FFFFFF" stroke="#106580" stroke-width="3.1485" stroke-linejoin="round" stroke-miterlimit="10" width="16.7" height="14.8"/>
					
						<rect x="106.2" y="123" fill="#FFFFFF" stroke="#106580" stroke-width="3.1485" stroke-linejoin="round" stroke-miterlimit="10" width="16.7" height="14.8"/>
					
						<rect x="122.9" y="123" fill="#FFFFFF" stroke="#106580" stroke-width="3.1485" stroke-linejoin="round" stroke-miterlimit="10" width="16.7" height="14.8"/>
					
						<rect x="139.6" y="123" fill="#FFFFFF" stroke="#106580" stroke-width="3.1485" stroke-linejoin="round" stroke-miterlimit="10" width="16.7" height="14.8"/>
					
						<rect x="156.3" y="123" fill="#FFFFFF" stroke="#106580" stroke-width="3.1485" stroke-linejoin="round" stroke-miterlimit="10" width="16.7" height="14.8"/>
					
						<rect x="173" y="123" fill="#FFFFFF" stroke="#106580" stroke-width="3.1485" stroke-linejoin="round" stroke-miterlimit="10" width="16.7" height="14.8"/>
					
						<rect x="189.7" y="123" fill="#FFFFFF" stroke="#106580" stroke-width="3.1485" stroke-linejoin="round" stroke-miterlimit="10" width="16.7" height="14.8"/>
					
						<rect x="206.4" y="123" fill="#FFFFFF" stroke="#106580" stroke-width="3.1485" stroke-linejoin="round" stroke-miterlimit="10" width="16.7" height="14.8"/>
					
						<rect x="223.2" y="123" fill="#FFFFFF" stroke="#106580" stroke-width="3.1485" stroke-linejoin="round" stroke-miterlimit="10" width="16.7" height="14.8"/>
					
						<rect x="239.9" y="123" fill="#FFFFFF" stroke="#106580" stroke-width="3.1485" stroke-linejoin="round" stroke-miterlimit="10" width="16.7" height="14.8"/>
					
						<rect x="256.6" y="123" fill="#FFFFFF" stroke="#106580" stroke-width="3.1485" stroke-linejoin="round" stroke-miterlimit="10" width="16.7" height="14.8"/>
					
						<rect x="273.3" y="123" fill="#FFFFFF" stroke="#106580" stroke-width="3.1485" stroke-linejoin="round" stroke-miterlimit="10" width="16.7" height="14.8"/>
					
						<rect x="290" y="123" fill="#FFFFFF" stroke="#106580" stroke-width="3.1485" stroke-linejoin="round" stroke-miterlimit="10" width="16.7" height="14.8"/>
					
						<rect x="306.7" y="123" fill="#FFFFFF" stroke="#106580" stroke-width="3.1485" stroke-linejoin="round" stroke-miterlimit="10" width="16.7" height="14.8"/>
					
						<line fill="#FFFFFF" stroke="#106580" stroke-width="3.1485" stroke-linejoin="round" stroke-miterlimit="10" x1="323.5" y1="137.8" x2="333.5" y2="147.8"/>
					
						<line fill="#FFFFFF" stroke="#106580" stroke-width="3.1485" stroke-linejoin="round" stroke-miterlimit="10" x1="323.5" y1="63.9" x2="333.5" y2="53.9"/>
					
						<line fill="#FFFFFF" stroke="#106580" stroke-width="3.1485" stroke-linejoin="round" stroke-miterlimit="10" x1="96.2" y1="53.9" x2="106.2" y2="63.9"/>
					
						<line fill="#FFFFFF" stroke="#106580" stroke-width="3.1485" stroke-linejoin="round" stroke-miterlimit="10" x1="96.2" y1="71.7" x2="106.2" y2="78.7"/>
					
						<line fill="#FFFFFF" stroke="#106580" stroke-width="3.1485" stroke-linejoin="round" stroke-miterlimit="10" x1="96.2" y1="89.5" x2="106.2" y2="93.5"/>
					
						<line fill="#FFFFFF" stroke="#106580" stroke-width="3.1485" stroke-linejoin="round" stroke-miterlimit="10" x1="106.2" y1="137.8" x2="96.2" y2="147.8"/>
					
						<line fill="#FFFFFF" stroke="#106580" stroke-width="3.1485" stroke-linejoin="round" stroke-miterlimit="10" x1="106.2" y1="123" x2="96.2" y2="130"/>
					
						<line fill="#FFFFFF" stroke="#106580" stroke-width="3.1485" stroke-linejoin="round" stroke-miterlimit="10" x1="106.2" y1="108.4" x2="96.2" y2="111.4"/>
					
						<line fill="#FFFFFF" stroke="#106580" stroke-width="3.1485" stroke-linejoin="round" stroke-miterlimit="10" x1="333.5" y1="71.7" x2="323.5" y2="78.7"/>
					
						<line fill="#FFFFFF" stroke="#106580" stroke-width="3.1485" stroke-linejoin="round" stroke-miterlimit="10" x1="333.5" y1="89.5" x2="323.5" y2="93.5"/>
					
						<line fill="#FFFFFF" stroke="#106580" stroke-width="3.1485" stroke-linejoin="round" stroke-miterlimit="10" x1="323.5" y1="123" x2="333.5" y2="130"/>
					
						<line fill="#FFFFFF" stroke="#106580" stroke-width="3.1485" stroke-linejoin="round" stroke-miterlimit="10" x1="323.5" y1="108.4" x2="333.5" y2="111.4"/>
					
						<line fill="#FFFFFF" stroke="#106580" stroke-width="3.1485" stroke-linejoin="round" stroke-miterlimit="10" x1="122.9" y1="63.9" x2="122.9" y2="53.9"/>
					
						<line fill="#FFFFFF" stroke="#106580" stroke-width="3.1485" stroke-linejoin="round" stroke-miterlimit="10" x1="139.6" y1="63.9" x2="139.6" y2="53.9"/>
					
						<line fill="#FFFFFF" stroke="#106580" stroke-width="3.1485" stroke-linejoin="round" stroke-miterlimit="10" x1="156.3" y1="63.9" x2="156.3" y2="53.9"/>
					
						<line fill="#FFFFFF" stroke="#106580" stroke-width="3.1485" stroke-linejoin="round" stroke-miterlimit="10" x1="173" y1="63.9" x2="173" y2="53.9"/>
					
						<line fill="#FFFFFF" stroke="#106580" stroke-width="3.1485" stroke-linejoin="round" stroke-miterlimit="10" x1="189.7" y1="63.9" x2="189.7" y2="53.9"/>
					
						<line fill="#FFFFFF" stroke="#106580" stroke-width="3.1485" stroke-linejoin="round" stroke-miterlimit="10" x1="206.4" y1="63.9" x2="206.4" y2="53.9"/>
					
						<line fill="#FFFFFF" stroke="#106580" stroke-width="3.1485" stroke-linejoin="round" stroke-miterlimit="10" x1="223.2" y1="63.9" x2="223.2" y2="53.9"/>
					
						<line fill="#FFFFFF" stroke="#106580" stroke-width="3.1485" stroke-linejoin="round" stroke-miterlimit="10" x1="239.9" y1="63.9" x2="239.9" y2="53.9"/>
					
						<line fill="#FFFFFF" stroke="#106580" stroke-width="3.1485" stroke-linejoin="round" stroke-miterlimit="10" x1="256.6" y1="63.9" x2="256.6" y2="53.9"/>
					
						<line fill="#FFFFFF" stroke="#106580" stroke-width="3.1485" stroke-linejoin="round" stroke-miterlimit="10" x1="273.3" y1="63.9" x2="273.3" y2="53.9"/>
					
						<line fill="#FFFFFF" stroke="#106580" stroke-width="3.1485" stroke-linejoin="round" stroke-miterlimit="10" x1="290" y1="63.9" x2="290" y2="53.9"/>
					
						<line fill="#FFFFFF" stroke="#106580" stroke-width="3.1485" stroke-linejoin="round" stroke-miterlimit="10" x1="306.7" y1="63.9" x2="306.7" y2="53.9"/>
				</g>
				
					<line fill="#FFFFFF" stroke="#106580" stroke-width="3.1485" stroke-linejoin="round" stroke-miterlimit="10" x1="80.2" y1="140.8" x2="38.5" y2="140.8"/>
				
					<line fill="#FFFFFF" stroke="#106580" stroke-width="3.1485" stroke-linejoin="round" stroke-miterlimit="10" x1="77.2" y1="136.3" x2="57.9" y2="136.3"/>
				
					<line fill="#FFFFFF" stroke="#106580" stroke-width="3.1485" stroke-linejoin="round" stroke-miterlimit="10" x1="392.9" y1="140.8" x2="351.2" y2="140.8"/>
				
					<line fill="#FFFFFF" stroke="#106580" stroke-width="3.1485" stroke-linejoin="round" stroke-miterlimit="10" x1="374.7" y1="136.3" x2="355.3" y2="136.3"/>
			</g>
			<path fill="#2F94CA" d="M26.6,92.9l7.3,4c1.4,0.8,1.4,2.9,0,3.7l-7.3,4c-0.4,0.2-0.6,0.5-0.8,0.8l-4,7.3c-0.8,1.4-2.9,1.4-3.7,0
				l-4-7.3c-0.2-0.4-0.5-0.6-0.8-0.8l-7.3-4c-1.4-0.8-1.4-2.9,0-3.7l7.3-4c0.4-0.2,0.6-0.5,0.8-0.8l4-7.3c0.8-1.4,2.9-1.4,3.7,0
				l4,7.3C26,92.4,26.3,92.7,26.6,92.9z"/>
			<path fill="#DA5F58" d="M40.7,59.4l4.4,2.4c0.9,0.5,0.9,1.7,0,2.2l-4.4,2.4c-0.2,0.1-0.4,0.3-0.5,0.5l-2.4,4.4
				c-0.5,0.9-1.7,0.9-2.2,0L33.1,67c-0.1-0.2-0.3-0.4-0.5-0.5l-4.4-2.4c-0.9-0.5-0.9-1.7,0-2.2l4.4-2.4c0.2-0.1,0.4-0.3,0.5-0.5
				l2.4-4.4c0.5-0.9,1.7-0.9,2.2,0l2.4,4.4C40.3,59.2,40.5,59.3,40.7,59.4z"/>
			<path fill="#FFFFFF" stroke="#106580" stroke-width="3.1485" stroke-linejoin="round" stroke-miterlimit="10" d="M61.4,80.9
				l4.4,2.4c0.9,0.5,0.9,1.7,0,2.2l-4.4,2.4c-0.2,0.1-0.4,0.3-0.5,0.5l-2.4,4.4c-0.5,0.9-1.7,0.9-2.2,0l-2.4-4.4
				c-0.1-0.2-0.3-0.4-0.5-0.5l-4.4-2.4c-0.9-0.5-0.9-1.7,0-2.2l4.4-2.4c0.2-0.1,0.4-0.3,0.5-0.5l2.4-4.4c0.5-0.9,1.7-0.9,2.2,0
				l2.4,4.4C61,80.6,61.2,80.7,61.4,80.9z"/>
			<path fill="#DA5F58" d="M385,44.9l-4,7.3c-0.8,1.4-2.9,1.4-3.7,0l-4-7.3c-0.2-0.4-0.5-0.6-0.8-0.8l-7.3-4c-1.4-0.8-1.4-2.9,0-3.7
				l7.3-4c0.4-0.2,0.6-0.5,0.8-0.8l4-7.3c0.8-1.4,2.9-1.4,3.7,0l4,7.3c0.2,0.4,0.5,0.6,0.8,0.8l7.3,4c1.4,0.8,1.4,2.9,0,3.7l-7.3,4
				C385.4,44.3,385.1,44.6,385,44.9z"/>
			<path fill="#FFFFFF" stroke="#106580" stroke-width="3.1485" stroke-linejoin="round" stroke-miterlimit="10" d="M418.4,59
				l-2.4,4.4c-0.5,0.9-1.7,0.9-2.2,0l-2.4-4.4c-0.1-0.2-0.3-0.4-0.5-0.5l-4.4-2.4c-0.9-0.5-0.9-1.7,0-2.2l4.4-2.4
				c0.2-0.1,0.4-0.3,0.5-0.5l2.4-4.4c0.5-0.9,1.7-0.9,2.2,0l2.4,4.4c0.1,0.2,0.3,0.4,0.5,0.5l4.4,2.4c0.9,0.5,0.9,1.7,0,2.2
				l-4.4,2.4C418.7,58.6,418.5,58.7,418.4,59z"/>
			<path fill="#2F94CA" d="M396.9,79.7l-2.4,4.4c-0.5,0.9-1.7,0.9-2.2,0l-2.4-4.4c-0.1-0.2-0.3-0.4-0.5-0.5l-4.4-2.4
				c-0.9-0.5-0.9-1.7,0-2.2l4.4-2.4c0.2-0.1,0.4-0.3,0.5-0.5l2.4-4.4c0.5-0.9,1.7-0.9,2.2,0l2.4,4.4c0.1,0.2,0.3,0.4,0.5,0.5
				l4.4,2.4c0.9,0.5,0.9,1.7,0,2.2l-4.4,2.4C397.2,79.3,397.1,79.4,396.9,79.7z"/>
			<circle fill="#C4C5C7" cx="69.1" cy="53.3" r="1.6"/>
			<circle fill="#C4C5C7" cx="5" cy="68.1" r="1.6"/>
			<circle fill="#C4C5C7" cx="48.2" cy="113.7" r="1.6"/>
			<circle fill="#C4C5C7" cx="225.6" cy="8.4" r="1.6"/>
			<circle fill="#C4C5C7" cx="328.5" cy="28.4" r="1.6"/>
			<circle fill="#C4C5C7" cx="407.3" cy="29.9" r="1.6"/>
			<circle fill="#C4C5C7" cx="364.2" cy="75.6" r="1.6"/>
			<circle fill="#C4C5C7" cx="379.1" cy="100.9" r="1.6"/>
			<circle fill="#C4C5C7" cx="430" cy="83.7" r="1.6"/>
			<circle fill="#C4C5C7" cx="146.4" cy="31.5" r="1.6"/>
			<circle fill="#C4C5C7" cx="85.7" cy="19.3" r="1.6"/>
			<circle fill="#C4C5C7" cx="31.5" cy="31.5" r="1.6"/>
		</g>
		<ellipse fill="#106580" cx="217.5" cy="186.3" rx="8.4" ry="2"/>
	</g>
	
		<line fill="#FFFFFF" stroke="#106580" stroke-width="3.1485" stroke-linejoin="round" stroke-miterlimit="10" x1="106.2" y1="147.8" x2="323.5" y2="147.8"/>
</g>
</svg>
