<?xml version="1.0" encoding="utf-8"?>
<!-- Generator: Adobe Illustrator 18.0.0, SVG Export Plug-In . SVG Version: 6.00 Build 0)  -->
<!DOCTYPE svg PUBLIC "-//W3C//DTD SVG 1.1//EN" "http://www.w3.org/Graphics/SVG/1.1/DTD/svg11.dtd">
<svg version="1.1" id="Layer_1" xmlns="http://www.w3.org/2000/svg" xmlns:xlink="http://www.w3.org/1999/xlink" x="0px" y="0px"
	 viewBox="0 0 200 110" enable-background="new 0 0 200 110" xml:space="preserve">
<g>
	<g>
		<g>
			<g>
				<path fill="#106580" d="M96.1,39.4c-4.4-5.6-10.3-9.8-17-12.3c-8.9-3.3-18.4-3.3-27.3,0c-6.7,2.5-12.5,6.7-17,12.3
					c-5.7,7-8.6,15.4-8.6,24.4c0,0.3,0,0.6,0,1v0.5l0,0l0,0c0.3,7.2,2.6,14.2,6.5,20.1c5.2,7.8,13.1,13.5,22.1,16
					c3.5,1,7.1,1.6,10.5,1.6c3.5,0,7.1-0.5,10.6-1.5C85.1,99,93,93.2,98.2,85.4c3.9-5.9,6.2-12.9,6.4-20l0,0v-0.5c0-0.3,0-0.7,0-1
					C104.6,54.8,101.7,46.4,96.1,39.4z M95.8,82.9H81.4l-4.5-6.2c1-3,4.4-13.8,5.4-16.7l7.2-2.4l11.7,8.4
					C100.9,72.1,99,77.8,95.8,82.9z M49.5,82.9H35c-3.1-5.1-5.1-10.8-5.4-16.8l11.7-8.4l7.2,2.4l5.4,16.7L49.5,82.9z M35.6,43.9
					l3.6,11.1l-9.6,7C29.9,55.5,31.9,49.3,35.6,43.9z M57,75.4l-5.2-16l13.7-9.9L79,59.4c-3,9.2-4.4,13.8-5.1,16L57,75.4L57,75.4z
					 M91.7,55.2L95.3,44c3.6,5.4,5.7,11.6,5.9,18.1L91.7,55.2z M93,40.7l-4.4,13.8l-7.2,2.4L67.1,46.6V39l11.7-8.4
					C84.2,32.7,89.1,36.2,93,40.7z M74.9,29.2l-9.5,6.9l-9.5-6.9C62.2,27.5,68.7,27.5,74.9,29.2z M52.1,30.5L63.8,39v7.6L49.6,56.8
					l-7.2-2.4l-4.4-13.8C41.7,36.2,46.6,32.7,52.1,30.5z M37.4,86.2h11.8l3.7,11.1C46.7,95.1,41.4,91.2,37.4,86.2z M56.6,98.5
					l-4.4-13.8l4.5-6.2h17.5l4.5,6.2l-4.4,13.8C68.4,100,62.6,100.1,56.6,98.5z M78.2,97.3l3.6-11.1h11.8
					C89.5,91.2,84.2,95.1,78.2,97.3z"/>
			</g>
			<g>
				<g>
					<path fill="#2F94CA" d="M31.5,58.6c0.6-3.8,1.8-7.4,3.6-10.8l2.1,6.6L31.5,58.6z"/>
					<path fill="#2F94CA" d="M58.2,73.8L53.7,60l11.8-8.5L77.1,60c-2.4,7.2-3.7,11.4-4.4,13.8H58.2z"/>
					<path fill="#2F94CA" d="M93.6,54.6l2.1-6.6c1.8,3.4,3,7,3.5,10.8L93.6,54.6z"/>
					<path fill="#2F94CA" d="M59.8,30c1.9-0.3,3.8-0.5,5.6-0.5c1.9,0,3.8,0.2,5.6,0.5l-5.6,4.1L59.8,30z"/>
					<path fill="#2F94CA" d="M50.1,94.4c-3.4-1.7-6.5-3.9-9.2-6.6h7L50.1,94.4z"/>
					<path fill="#2F94CA" d="M82.9,87.8h7c-2.6,2.7-5.7,4.9-9.1,6.6L82.9,87.8z"/>
				</g>
			</g>
		</g>
		<g>
			<path fill="#FFFFFF" stroke="#106580" stroke-width="3.1485" stroke-linejoin="round" stroke-miterlimit="10" d="M194.9,63.8h-8
				c-1.6,6.7-7.6,9.4-14.8,9.4s-13.2-2.7-14.8-9.4h-9c-10.7,3.3-46.7,12-46.7,12c-24.2,0-32.8,10.7-35.9,18.6
				c-1.5,3.9,1.4,8.1,5.5,8.1h108.9c7.5,0,14.6-6.1,14.6-13.6L194.9,63.8z"/>
			<path fill="#DA5F58" d="M179.8,98.5H75.5c-0.8,0-1.3-0.8-1-1.5l1.1-2.7c0.2-0.4,0.6-0.7,1-0.7H181c0.8,0,1.3,0.8,1,1.5l-1.1,2.7
				C180.7,98.3,180.3,98.5,179.8,98.5z"/>
			<path fill="#106580" d="M75.6,108.7L75.6,108.7c-1.2,0-2.2-1-2.2-2.2v-4h4.5v4C77.8,107.7,76.8,108.7,75.6,108.7z"/>
			<path fill="#106580" d="M87.3,108.7L87.3,108.7c-1.2,0-2.2-1-2.2-2.2v-4h4.5v4C89.5,107.7,88.5,108.7,87.3,108.7z"/>
			<path fill="#106580" d="M99,108.7L99,108.7c-1.2,0-2.2-1-2.2-2.2v-4h4.5v4C101.2,107.7,100.2,108.7,99,108.7z"/>
			<path fill="#106580" d="M110.7,108.7L110.7,108.7c-1.2,0-2.2-1-2.2-2.2v-4h4.5v4C112.9,107.7,111.9,108.7,110.7,108.7z"/>
			<path fill="#106580" d="M162.9,108.7L162.9,108.7c-1.2,0-2.2-1-2.2-2.2v-4h4.5v4C165.1,107.7,164.1,108.7,162.9,108.7z"/>
			<path fill="#106580" d="M174.5,108.7L174.5,108.7c-1.2,0-2.2-1-2.2-2.2v-4h4.5v4C176.8,107.7,175.8,108.7,174.5,108.7z"/>
			<polygon fill="#106580" points="121,103.5 105.2,75.5 113.3,73.5 129.1,101.5 			"/>
			<polygon fill="#106580" points="135.1,103.5 117.3,72 125.5,70 143.2,101.5 			"/>
			
				<path fill="none" stroke="#106580" stroke-width="3.1485" stroke-linecap="round" stroke-linejoin="round" stroke-miterlimit="10" d="
				M189.9,70.1c-1.9,6.7-8.7,9.4-16.8,9.4c-8.1,0-16.9-2.7-18.8-9.4"/>
		</g>
	</g>
	<path fill="#106580" d="M11.1,71.5l3.5-0.2c0.3,0,0.4,0.3,0.3,0.5l-2,2.9c-0.1,0.1-0.1,0.2,0,0.3l1.2,3.3c0.1,0.3-0.1,0.5-0.4,0.4
		l-3.4-1c-0.1,0-0.2,0-0.3,0.1L7.3,80c-0.2,0.2-0.5,0-0.5-0.2l-0.1-3.5c0-0.1-0.1-0.2-0.1-0.3L3.6,74c-0.2-0.1-0.2-0.5,0.1-0.6
		L7,72.2c0.1,0,0.2-0.1,0.2-0.2l0.9-3.4c0.1-0.3,0.4-0.3,0.6-0.1l2.1,2.8C10.9,71.4,11,71.5,11.1,71.5z"/>
	<path fill="#106580" d="M21.1,30.7l2.6,2.4c0.2,0.2,0.1,0.5-0.2,0.6l-3.5,0.6c-0.1,0-0.2,0.1-0.2,0.2l-1.5,3.2
		c-0.1,0.2-0.5,0.3-0.6,0l-1.7-3.1c-0.1-0.1-0.1-0.2-0.3-0.2L12.4,34c-0.3,0-0.4-0.4-0.2-0.5l2.4-2.5c0.1-0.1,0.1-0.2,0.1-0.3
		L14,27.2c-0.1-0.3,0.2-0.5,0.5-0.4l3.2,1.5c0.1,0,0.2,0,0.3,0l3.1-1.7c0.2-0.1,0.5,0.1,0.5,0.3L21,30.4C21,30.5,21,30.6,21.1,30.7z
		"/>
	<path fill="#106580" d="M56.9,8.9l0.2,3.5c0,0.3-0.3,0.4-0.5,0.3l-2.9-2c-0.1-0.1-0.2-0.1-0.3,0l-3.3,1.2c-0.3,0.1-0.5-0.1-0.4-0.4
		l1-3.4c0-0.1,0-0.2-0.1-0.3l-2.2-2.8c-0.2-0.2,0-0.5,0.2-0.5l3.5-0.1c0.1,0,0.2-0.1,0.3-0.1l1.9-2.9c0.1-0.2,0.5-0.2,0.6,0.1
		l1.2,3.3c0,0.1,0.1,0.2,0.2,0.2L59.7,6C60,6,60.1,6.4,59.9,6.5L57,8.7C57,8.7,56.9,8.8,56.9,8.9z"/>
	<path fill="#106580" d="M97.7,18.9l-2.4,2.6c-0.2,0.2-0.5,0.1-0.6-0.2l-0.6-3.5c0-0.1-0.1-0.2-0.2-0.2l-3.2-1.5
		c-0.2-0.1-0.3-0.5,0-0.6l3.1-1.7c0.1-0.1,0.2-0.1,0.2-0.3l0.4-3.5c0-0.3,0.4-0.4,0.5-0.2l2.5,2.4c0.1,0.1,0.2,0.1,0.3,0.1l3.4-0.7
		c0.3-0.1,0.5,0.2,0.4,0.5l-1.5,3.2c0,0.1,0,0.2,0,0.3l1.7,3.1c0.1,0.2-0.1,0.5-0.3,0.5l-3.5-0.5C97.8,18.7,97.7,18.8,97.7,18.9z"/>
	<path fill="#106580" d="M119.4,54.7l-3.5,0.2c-0.3,0-0.4-0.3-0.3-0.5l2-2.9c0.1-0.1,0.1-0.2,0-0.3l-1.2-3.3
		c-0.1-0.3,0.1-0.5,0.4-0.4l3.4,1c0.1,0,0.2,0,0.3-0.1l2.8-2.2c0.2-0.2,0.5,0,0.5,0.2l0.1,3.5c0,0.1,0.1,0.2,0.1,0.3l2.9,1.9
		c0.2,0.1,0.2,0.5-0.1,0.6l-3.3,1.2c-0.1,0-0.2,0.1-0.2,0.2l-0.9,3.4c-0.1,0.3-0.4,0.3-0.6,0.1l-2.1-2.8
		C119.7,54.7,119.6,54.7,119.4,54.7z"/>
</g>
</svg>
