<?xml version="1.0" encoding="utf-8"?>
<!-- Generator: Adobe Illustrator 18.0.0, SVG Export Plug-In . SVG Version: 6.00 Build 0)  -->
<!DOCTYPE svg PUBLIC "-//W3C//DTD SVG 1.1//EN" "http://www.w3.org/Graphics/SVG/1.1/DTD/svg11.dtd">
<svg version="1.1" id="Layer_1" xmlns="http://www.w3.org/2000/svg" xmlns:xlink="http://www.w3.org/1999/xlink" x="0px" y="0px"
	 viewBox="0 0 220 130" enable-background="new 0 0 220 130" xml:space="preserve">
<g>
	<path fill="#106580" d="M142.1,31.4c1.1-0.7,2.6-0.4,3.3,0.7l4-2.5L132.2,2.2l-4,2.5c0.7,1.1,0.4,2.6-0.7,3.3s-2.6,0.4-3.3-0.7
		l-4.5,2.8l17.2,27.4l4.5-2.8C140.7,33.5,141,32.1,142.1,31.4z"/>
	<path fill="#DA5F58" d="M180.6,81.4c0.8-1.2,2.3-1.5,3.5-0.7l2.8-4.3L158,57.5l-2.8,4.3c1.2,0.8,1.5,2.3,0.7,3.5
		c-0.8,1.2-2.3,1.5-3.5,0.7l-3.1,4.7l28.9,18.8l3.1-4.7C180.2,84.1,179.9,82.5,180.6,81.4z"/>
	<path fill="#106580" d="M76.8,110.8c-0.7,0-1.3-0.4-1.6-1L68,93.9c-0.2-0.4-0.2-0.9,0-1.3s0.5-0.8,0.9-1c1.5-0.7,2.6-1.9,3.2-3.4
		c0.6-1.5,0.5-3.2-0.2-4.7c-1-2.2-3.2-3.6-5.6-3.6c-0.9,0-1.7,0.2-2.5,0.6c-0.4,0.2-0.9,0.2-1.3,0c-0.4-0.2-0.8-0.5-1-0.9l-6.6-14.4
		c-0.4-0.9,0-1.9,0.9-2.3l97.9-44.7c0.4-0.2,0.9-0.2,1.3,0c0.4,0.2,0.8,0.5,1,0.9l6.6,14.4c0.4,0.9,0,1.9-0.8,2.3
		c-1.5,0.7-2.6,1.9-3.2,3.4c-0.6,1.5-0.5,3.2,0.2,4.7c1,2.2,3.2,3.6,5.6,3.6c0.9,0,1.7-0.2,2.5-0.6c0.9-0.4,1.9,0,2.3,0.9l7.3,15.9
		c0.4,0.9,0,1.9-0.9,2.3l-97.9,44.7C77.3,110.8,77,110.8,76.8,110.8z M71.8,93.9l5.9,12.9l94.8-43.2l-5.9-12.9
		c-0.8,0.2-1.5,0.3-2.3,0.3c-3.7,0-7.2-2.2-8.7-5.6c-2-4.3-0.5-9.3,3.2-11.8l-5.2-11.4L58.7,65.3l5.2,11.4c0.8-0.2,1.5-0.3,2.3-0.3
		c3.7,0,7.2,2.2,8.7,5.6c1.1,2.3,1.2,4.9,0.3,7.3C74.6,91.2,73.3,92.8,71.8,93.9z"/>
	<g>
		<g>
			<path fill="#28C5B3" d="M140.7,78.4c0,5.2-1.9,9.4-5.7,12.6c-3.8,3.2-9.1,5.1-15.9,5.7v10.1h-6.8v-9.9c-8-0.2-15.1-1.6-21.1-4.2
				v-13c2.9,1.4,6.3,2.7,10.3,3.8c4,1.1,7.6,1.7,10.8,1.9V70l-3.3-1.3c-6.5-2.6-11.1-5.4-13.9-8.4c-2.7-3-4.1-6.7-4.1-11.2
				c0-4.8,1.9-8.7,5.6-11.8c3.7-3.1,8.9-4.9,15.6-5.6v-7.6h6.8v7.4c7.5,0.3,14.4,1.8,20.4,4.5l-4.6,11.6c-5.1-2.1-10.4-3.4-15.8-3.9
				v14.6c6.4,2.5,11,4.6,13.7,6.4c2.7,1.8,4.7,3.8,6,6C140.1,73,140.7,75.5,140.7,78.4z M106,49.2c0,1.4,0.5,2.6,1.5,3.6
				c1,0.9,2.6,1.9,4.9,2.9V44C108.1,44.7,106,46.4,106,49.2z M125.9,79.1c0-1.4-0.6-2.5-1.7-3.5c-1.1-1-2.8-1.9-5-3V85
				C123.6,84.2,125.9,82.3,125.9,79.1z"/>
			<path fill="#106580" d="M119.1,24.2v7.4c7.5,0.3,14.4,1.8,20.4,4.5l-4.6,11.6c-5.1-2.1-10.4-3.4-15.8-3.9v14.6
				c6.4,2.5,11,4.6,13.7,6.4c2.7,1.8,4.7,3.8,6,6c1.3,2.2,1.9,4.7,1.9,7.6c0,5.2-1.9,9.4-5.7,12.6c-3.8,3.2-9.1,5.1-15.9,5.7v10.1
				h-6.8v-9.9c-8-0.2-15.1-1.6-21.1-4.2v-13c2.9,1.4,6.3,2.7,10.3,3.8c4,1.1,7.6,1.7,10.8,1.9V70l-3.3-1.3
				c-6.5-2.6-11.1-5.4-13.9-8.4c-2.7-3-4.1-6.7-4.1-11.2c0-4.8,1.9-8.7,5.6-11.8c3.7-3.1,8.9-4.9,15.6-5.6v-7.6H119.1 M112.4,55.6
				V44c-4.2,0.6-6.4,2.3-6.4,5.1c0,1.4,0.5,2.6,1.5,3.6C108.5,53.7,110.1,54.7,112.4,55.6 M119.1,85c4.5-0.8,6.7-2.7,6.7-5.8
				c0-1.4-0.6-2.5-1.7-3.5c-1.1-1-2.8-1.9-5-3V85 M119.1,20.8h-6.8c-1.9,0-3.4,1.5-3.4,3.4v4.5c-5.9,1-10.7,3-14.4,6
				c-4.5,3.7-6.9,8.6-6.9,14.4c0,5.3,1.7,9.8,5,13.5c3.1,3.4,8.1,6.5,15.1,9.3l1.1,0.4v9.1c-2-0.3-4.2-0.8-6.5-1.4
				c-3.8-1-7.1-2.2-9.7-3.5c-0.5-0.2-1-0.4-1.5-0.4c-0.6,0-1.3,0.2-1.8,0.5c-1,0.6-1.6,1.7-1.6,2.9v13c0,1.4,0.8,2.6,2.1,3.1
				c5.6,2.5,12,3.9,19.1,4.4v6.6c0,1.9,1.5,3.4,3.4,3.4h6.8c1.9,0,3.4-1.5,3.4-3.4v-7.1c6-1,11-3,14.7-6.1c4.6-3.8,6.9-9,6.9-15.2
				c0-3.5-0.8-6.6-2.4-9.3c-1.5-2.6-3.9-5-7-7.1c-2.6-1.7-6.6-3.7-12.2-5.9v-8.3c3.8,0.6,7.5,1.7,11.1,3.1c0.4,0.2,0.9,0.3,1.3,0.3
				c0.5,0,0.9-0.1,1.3-0.3c0.8-0.4,1.5-1,1.9-1.9l4.6-11.6c0.7-1.7-0.1-3.7-1.8-4.4c-5.6-2.5-11.7-4-18.4-4.6v-4.1
				C122.6,22.3,121,20.8,119.1,20.8L119.1,20.8z"/>
		</g>
	</g>
	<path fill="#2F94CA" d="M70.9,39.7c-0.2-1.4,0.7-2.7,2.1-2.9l-0.9-5l-34,5.9l0.9,5c1.4-0.2,2.7,0.7,2.9,2.1
		c0.2,1.4-0.7,2.7-2.1,2.9l1,5.5l34-5.9l-1-5.5C72.4,42,71.1,41.1,70.9,39.7z"/>
	<path fill="#8061CB" d="M96.6,119.3c0.4-1.3,1.8-2.1,3.1-1.8l1.4-4.9l-33.2-9.2l-1.4,4.9c1.3,0.4,2.1,1.8,1.8,3.1
		c-0.4,1.3-1.8,2.1-3.1,1.8l-1.5,5.4l33.2,9.2l1.5-5.4C97,122.1,96.2,120.7,96.6,119.3z"/>
	
		<path fill="none" stroke="#C4C5C7" stroke-width="2.1835" stroke-linecap="round" stroke-linejoin="round" stroke-miterlimit="10" stroke-dasharray="5.4588,5.4588" d="
		M85.6,65.5"/>
	<path fill="#C4C5C7" d="M2,66.1c-0.3-0.5-0.1-1.2,0.4-1.5l0,0l0,0l0,0C3,64.3,3.6,64.5,3.9,65l0,0c0.3,0.5,0.1,1.2-0.4,1.5l0,0
		c-0.2,0.1-0.4,0.1-0.5,0.1l0,0C2.6,66.6,2.2,66.4,2,66.1z M44.2,65.6c-0.5-0.3-0.7-1-0.4-1.5l0,0c0.3-0.5,1-0.7,1.5-0.4l0,0
		c0.5,0.3,0.7,1,0.4,1.5l0,0c-0.2,0.3-0.6,0.5-0.9,0.5l0,0C44.6,65.7,44.4,65.7,44.2,65.6z M7,63.7c-0.2-0.6,0-1.2,0.6-1.4l0,0
		C8.1,62,8.8,62.3,9,62.9l0,0c0.2,0.6-0.1,1.2-0.6,1.4l0,0c-0.1,0.1-0.3,0.1-0.4,0.1l0,0C7.5,64.4,7.1,64.1,7,63.7z M39.5,63.2
		L39.5,63.2c-0.6-0.2-0.8-0.9-0.6-1.4l0,0c0.2-0.6,0.9-0.8,1.4-0.6l0,0l0,0l0,0c0.6,0.2,0.8,0.9,0.6,1.4l0,0c-0.2,0.4-0.6,0.7-1,0.7
		l0,0C39.8,63.3,39.7,63.2,39.5,63.2z M12.1,61.8c-0.2-0.6,0.2-1.2,0.8-1.3l0,0c0.6-0.2,1.2,0.2,1.4,0.8l0,0
		c0.2,0.6-0.2,1.2-0.8,1.4l0,0c-0.1,0-0.2,0-0.3,0l0,0C12.7,62.6,12.2,62.3,12.1,61.8z M34.5,61.6c-0.6-0.1-1-0.7-0.8-1.3l0,0
		c0.1-0.6,0.7-1,1.3-0.8l0,0c0.6,0.1,1,0.7,0.8,1.3l0,0c-0.1,0.5-0.6,0.9-1.1,0.9l0,0C34.7,61.6,34.6,61.6,34.5,61.6z M17.4,60.5
		c-0.1-0.6,0.3-1.2,0.9-1.3l0,0c0.6-0.1,1.2,0.3,1.3,0.9l0,0c0.1,0.6-0.3,1.2-0.9,1.3l0,0c-0.1,0-0.1,0-0.2,0l0,0
		C17.9,61.4,17.5,61,17.4,60.5z M29.3,60.8c-0.6,0-1-0.6-1-1.2l0,0c0-0.6,0.6-1.1,1.2-1l0,0c0,0,0,0,0,0l0,0c0.6,0,1,0.6,1,1.2l0,0
		C30.4,60.4,29.9,60.8,29.3,60.8L29.3,60.8C29.3,60.8,29.3,60.8,29.3,60.8z M22.8,59.7c0-0.6,0.4-1.1,1-1.1l0,0c0.6,0,1.1,0.4,1.1,1
		l0,0c0,0.6-0.4,1.1-1,1.2l0,0c0,0,0,0-0.1,0l0,0C23.3,60.8,22.8,60.3,22.8,59.7z"/>
	<path fill="#C4C5C7" d="M175,99.3c0-0.6,0.5-1.1,1.1-1.1l0,0c0.6,0,1.1,0.5,1.1,1.1l0,0c0,0.6-0.5,1.1-1.1,1.1l0,0h0l0,0
		C175.5,100.3,175,99.8,175,99.3z M170.5,100L170.5,100c-0.6-0.1-1-0.6-1-1.2l0,0c0.1-0.6,0.6-1,1.2-1l0,0l0,0l0,0
		c0.6,0.1,1,0.6,1,1.2l0,0c-0.1,0.5-0.5,1-1.1,1l0,0C170.6,100,170.6,100,170.5,100z M180.5,99c-0.1-0.6,0.4-1.1,1-1.2l0,0l0,0l0,0
		c0.6-0.1,1.1,0.4,1.2,1l0,0c0.1,0.6-0.4,1.1-1,1.2l0,0c0,0-0.1,0-0.1,0l0,0C181,100,180.5,99.6,180.5,99z M185.9,98.1
		c-0.1-0.6,0.2-1.2,0.8-1.3l0,0c0.6-0.1,1.2,0.2,1.3,0.8l0,0c0.1,0.6-0.2,1.2-0.8,1.3l0,0c-0.1,0-0.2,0-0.2,0l0,0
		C186.4,99,186,98.6,185.9,98.1z M165,98.9L165,98.9c-0.6-0.2-0.9-0.8-0.8-1.3l0,0c0.2-0.6,0.8-0.9,1.4-0.8l0,0l0,0l0,0
		c0.6,0.2,0.9,0.8,0.8,1.3l0,0c-0.1,0.5-0.6,0.8-1,0.8l0,0C165.2,99,165.1,99,165,98.9z M191.1,96.8c-0.2-0.6,0.1-1.2,0.7-1.4l0,0
		l0,0l0,0c0.6-0.2,1.2,0.1,1.4,0.7l0,0c0.2,0.6-0.1,1.2-0.7,1.4l0,0c-0.1,0-0.2,0.1-0.3,0.1l0,0C191.7,97.5,191.3,97.2,191.1,96.8z
		 M159.7,97L159.7,97c-0.5-0.2-0.8-0.9-0.5-1.4l0,0c0.2-0.5,0.9-0.8,1.4-0.5l0,0c0.5,0.2,0.8,0.9,0.5,1.5l0,0
		c-0.2,0.4-0.6,0.6-1,0.6l0,0C160,97.1,159.9,97.1,159.7,97z M196.3,94.9c-0.2-0.6,0-1.2,0.6-1.4l0,0l0,0l0,0c0.5-0.2,1.2,0,1.4,0.6
		l0,0c0.2,0.6,0,1.2-0.6,1.4l0,0c-0.1,0.1-0.3,0.1-0.4,0.1l0,0C196.9,95.6,196.5,95.3,196.3,94.9z M154.8,94.2L154.8,94.2
		c-0.5-0.3-0.6-1-0.3-1.5l0,0c0.3-0.5,1-0.6,1.5-0.3l0,0l0,0l0,0c0.5,0.3,0.6,1,0.3,1.5l0,0c-0.2,0.3-0.6,0.5-0.9,0.5l0,0
		C155.2,94.4,155,94.3,154.8,94.2z"/>
	<path fill="#C4C5C7" d="M52.1,88.6c-0.1-0.6,0.4-1.1,1-1.2l0,0l0,0l0,0c0.6-0.1,1.1,0.4,1.2,1l0,0c0.1,0.6-0.4,1.1-1,1.2l0,0
		c0,0-0.1,0-0.1,0l0,0C52.6,89.5,52.1,89.1,52.1,88.6z M47.6,89.5c-0.6-0.1-1-0.6-0.9-1.2l0,0c0.1-0.6,0.6-1,1.2-1l0,0
		c0.6,0.1,1,0.6,1,1.2l0,0c-0.1,0.5-0.5,1-1.1,1l0,0C47.7,89.5,47.6,89.5,47.6,89.5z M57.4,87.7c-0.2-0.6,0.1-1.2,0.7-1.4l0,0
		c0.6-0.2,1.2,0.2,1.4,0.7l0,0c0.2,0.6-0.1,1.2-0.7,1.4l0,0c-0.1,0-0.2,0-0.3,0l0,0C58,88.4,57.6,88.1,57.4,87.7z M42,88.2
		c-0.6-0.2-0.8-0.8-0.6-1.4l0,0c0.2-0.6,0.8-0.8,1.4-0.6l0,0l0,0l0,0c0.6,0.2,0.9,0.8,0.6,1.4l0,0c-0.2,0.4-0.6,0.7-1,0.7l0,0
		C42.3,88.2,42.2,88.2,42,88.2z M62.6,85.9c-0.3-0.5,0-1.2,0.5-1.4l0,0c0.5-0.3,1.2,0,1.5,0.5l0,0c0.3,0.5,0,1.2-0.5,1.5l0,0
		c-0.1,0.1-0.3,0.1-0.5,0.1l0,0C63.2,86.5,62.8,86.2,62.6,85.9z M37,85.5c-0.5-0.3-0.6-1-0.3-1.5l0,0c0.3-0.5,1-0.6,1.5-0.3l0,0
		c0,0,0,0,0,0l0,0c0.5,0.3,0.6,1,0.3,1.5l0,0c-0.2,0.3-0.6,0.5-0.9,0.5l0,0C37.4,85.7,37.2,85.7,37,85.5z M32.6,81.9
		c-0.4-0.4-0.4-1.1,0-1.5l0,0c0.4-0.4,1.1-0.4,1.5,0l0,0l0,0l0,0c0.4,0.4,0.4,1.1,0,1.5l0,0c-0.2,0.2-0.5,0.3-0.8,0.3l0,0
		C33.1,82.3,32.8,82.1,32.6,81.9z M29,77.4L29,77.4c-0.3-0.5-0.1-1.2,0.4-1.5l0,0c0.5-0.3,1.2-0.1,1.5,0.4l0,0
		c0.3,0.5,0.1,1.2-0.4,1.5l0,0C30.3,77.9,30.2,78,30,78l0,0C29.6,78,29.2,77.8,29,77.4z"/>
	<path fill="#C4C5C7" d="M199.3,40.9c-0.5-0.3-0.8-0.9-0.5-1.5l0,0c0.3-0.5,0.9-0.8,1.5-0.5l0,0l0,0l0,0c0.5,0.3,0.8,0.9,0.5,1.5
		l0,0c-0.2,0.4-0.6,0.6-1,0.6l0,0C199.6,41,199.4,40.9,199.3,40.9z M167.2,39.9c-0.3-0.5-0.1-1.2,0.4-1.5l0,0l0,0l0,0
		c0.5-0.3,1.2-0.1,1.5,0.4l0,0c0.3,0.5,0.1,1.2-0.4,1.5l0,0c-0.2,0.1-0.3,0.1-0.5,0.1l0,0C167.8,40.5,167.4,40.3,167.2,39.9z
		 M194.4,38.8L194.4,38.8c-0.6-0.2-0.9-0.8-0.7-1.4l0,0c0.2-0.6,0.8-0.9,1.4-0.7l0,0c0.6,0.2,0.9,0.8,0.7,1.4l0,0
		c-0.2,0.5-0.6,0.8-1,0.8l0,0C194.6,38.9,194.5,38.9,194.4,38.8z M172.2,37.8c-0.2-0.6,0.2-1.2,0.7-1.4l0,0c0.6-0.2,1.2,0.2,1.4,0.7
		l0,0c0.2,0.6-0.2,1.2-0.8,1.3l0,0c-0.1,0-0.2,0.1-0.3,0.1l0,0C172.8,38.5,172.3,38.2,172.2,37.8z M189.3,37.6
		c-0.6-0.1-1-0.7-0.9-1.3l0,0c0.1-0.6,0.7-1,1.3-0.9l0,0c0.6,0.1,1,0.7,0.9,1.3l0,0c-0.1,0.5-0.6,0.9-1.1,0.9l0,0
		C189.4,37.6,189.3,37.6,189.3,37.6z M177.5,36.5c-0.1-0.6,0.3-1.1,0.9-1.2l0,0c0.6-0.1,1.1,0.3,1.2,0.9l0,0
		c0.1,0.6-0.3,1.1-0.9,1.2l0,0c0,0-0.1,0-0.1,0l0,0C178,37.4,177.6,37,177.5,36.5z M184,37.1c-0.6,0-1.1-0.5-1.1-1.1l0,0
		c0-0.6,0.5-1.1,1.1-1.1l0,0c0.6,0,1.1,0.5,1.1,1.1l0,0C185.1,36.6,184.6,37.1,184,37.1L184,37.1C184,37.1,184,37.1,184,37.1z"/>
</g>
</svg>
