<?xml version="1.0" encoding="utf-8"?>
<!-- Generator: Adobe Illustrator 18.0.0, SVG Export Plug-In . SVG Version: 6.00 Build 0)  -->
<!DOCTYPE svg PUBLIC "-//W3C//DTD SVG 1.1//EN" "http://www.w3.org/Graphics/SVG/1.1/DTD/svg11.dtd">
<svg version="1.1" id="Layer_1" xmlns="http://www.w3.org/2000/svg" xmlns:xlink="http://www.w3.org/1999/xlink" x="0px" y="0px"
	 viewBox="0 0 190 195" enable-background="new 0 0 190 195" xml:space="preserve">
<g>
	<g>
		<path fill="#106580" d="M168.9,42.3v122.9c0,0.8-0.5,1.6-1.3,1.9L99,191.2c-0.4,0.2-0.9,0.2-1.3,0l-68.5-24.1
			c-0.8-0.3-1.3-1-1.3-1.9v-123c0-0.9,0.6-1.7,1.5-1.9c9.8-2.7,67.8-16.7,138,0C168.3,40.6,168.9,41.4,168.9,42.3z"/>
		<path fill="#FFFFFF" stroke="#106580" stroke-width="3.5918" stroke-linejoin="round" stroke-miterlimit="10" d="M165.2,34.8
			v125.9l-70.5,24.8l-70.5-24.8V34.8C24.1,34.8,87.3,15.7,165.2,34.8z"/>
		<path fill="#FFFFFF" stroke="#DA5F58" stroke-width="3.5918" stroke-linejoin="round" stroke-miterlimit="10" d="M30.3,156.3V39.6
			c9.3-2.3,32.7-7.1,63.6-7.1c22.1,0,43.9,2.4,65,7.2v116.6l-64.3,22.6L30.3,156.3z"/>
		<path fill="#FFFFFF" stroke="#106580" stroke-width="3.5918" stroke-linejoin="round" stroke-miterlimit="10" d="M118,19.2
			c-0.9-2.2,0.2-4.7,2.5-5.6l-3.2-8.1L62.1,27l3.2,8.1c2.2-0.9,4.7,0.2,5.6,2.5c0.9,2.2-0.2,4.7-2.5,5.6l3.5,9l55.1-21.6l-3.5-9
			C121.3,22.5,118.8,21.4,118,19.2z"/>
		<g>
			<path fill="#FFFFFF" d="M132.7,57.7c-5.5-6.9-12.8-12.2-21.1-15.2c-11-4.1-22.8-4.1-33.8,0c-8.3,3.1-15.6,8.3-21.1,15.2
				C49.7,66.4,46,76.9,46,88c0,0.4,0,0.8,0,1.2v0.6l0,0l0,0c0.4,9,3.2,17.6,8.1,25c6.5,9.7,16.2,16.8,27.5,19.9
				c4.3,1.3,8.8,1.9,13.1,1.9s8.8-0.6,13.2-1.8c11.2-3.1,21-10.3,27.5-20c4.9-7.4,7.7-16,8-24.9l0,0v-0.6c0-0.4,0-0.9,0-1.3
				C143.3,76.9,139.6,66.4,132.7,57.7z"/>
			<g>
				<g>
					<path fill="#106580" d="M132.7,57.7c-5.5-6.9-12.8-12.2-21.1-15.2c-11-4.1-22.8-4.1-33.8,0c-8.3,3.1-15.6,8.3-21.1,15.2
						C49.7,66.4,46,76.9,46,88c0,0.4,0,0.8,0,1.2v0.6l0,0l0,0c0.4,9,3.2,17.6,8.1,25c6.5,9.7,16.2,16.8,27.5,19.9
						c4.3,1.3,8.8,1.9,13.1,1.9s8.8-0.6,13.2-1.8c11.2-3.1,21-10.3,27.5-20c4.9-7.4,7.7-16,8-24.9l0,0v-0.6c0-0.4,0-0.9,0-1.3
						C143.3,76.9,139.6,66.4,132.7,57.7z M132.4,111.7h-17.9l-5.6-7.7c1.2-3.7,5.5-17.1,6.7-20.8l9-2.9L139,90.8
						C138.7,98.3,136.3,105.4,132.4,111.7z M74.9,111.7H56.9c-3.9-6.3-6.3-13.4-6.7-20.9l14.5-10.5l9,2.9l6.7,20.8L74.9,111.7z
						 M57.6,63.4L62,77.2l-11.9,8.7C50.5,77.7,53,70.1,57.6,63.4z M84.2,102.4l-6.5-19.9l17-12.3l16.9,12.3
						c-3.8,11.5-5.5,17.1-6.4,19.9L84.2,102.4L84.2,102.4z M127.3,77.3l4.4-13.8c4.4,6.7,7,14.4,7.4,22.5L127.3,77.3z M128.8,59.4
						l-5.5,17.1l-9,2.9L96.7,66.6v-9.4l14.5-10.5C118,49.4,124.1,53.7,128.8,59.4z M106.4,45.1l-11.8,8.5l-11.8-8.5
						C90.7,42.9,98.7,42.9,106.4,45.1z M78.1,46.7l14.5,10.5v9.4L75,79.4l-9-2.9l-5.5-17.1C65.2,53.7,71.3,49.4,78.1,46.7z
						 M59.8,115.8h14.6l4.5,13.8C71.4,126.8,64.8,122.1,59.8,115.8z M83.7,131.2l-5.5-17.1l5.6-7.7h21.7l5.6,7.7l-5.5,17.1
						C98.3,133,91.1,133.1,83.7,131.2z M110.4,129.6l4.4-13.8h14.6C124.5,122.1,117.9,126.8,110.4,129.6z"/>
				</g>
				<g>
					<g>
						<path fill="#2F94CA" d="M52.6,81.6c0.7-4.8,2.2-9.2,4.4-13.4l2.6,8.3L52.6,81.6z"/>
						<path fill="#2F94CA" d="M85.6,100.4L80,83.3l14.6-10.6l14.5,10.6c-2.9,8.9-4.6,14.1-5.5,17.1H85.6z"/>
						<path fill="#2F94CA" d="M129.7,76.5l2.6-8.2c2.2,4.2,3.7,8.7,4.4,13.3L129.7,76.5z"/>
						<path fill="#2F94CA" d="M87.7,46.1c2.3-0.4,4.7-0.6,7-0.6c2.3,0,4.7,0.2,7,0.6l-7,5.1L87.7,46.1z"/>
						<path fill="#2F94CA" d="M75.7,126c-4.2-2.1-8.1-4.9-11.4-8.2H73L75.7,126z"/>
						<path fill="#2F94CA" d="M116.3,117.8h8.7c-3.3,3.3-7.1,6.1-11.3,8.2L116.3,117.8z"/>
					</g>
				</g>
			</g>
		</g>
		<g>
			<path fill="#106580" d="M183.3,152.2c-57.1-8.8-115.2-8.8-172.2,0c-1.2,0.2-2.3-0.7-2.3-2v-25.8c0-1,0.7-1.8,1.7-2
				c57.5-8.9,116-8.9,173.5,0c1,0.2,1.7,1,1.7,2v25.8C185.6,151.5,184.5,152.4,183.3,152.2z"/>
			<path fill="#FFFFFF" d="M183.1,147.6c-58.6-9.3-118.3-9.3-176.8,0c0-9.9,0-19.9,0-29.8c58.6-9.3,118.3-9.3,176.8,0
				C183.1,127.7,183.1,137.7,183.1,147.6z"/>
			<path fill="none" stroke="#106580" stroke-width="3.5918" stroke-linejoin="round" stroke-miterlimit="10" d="M183.1,147.6
				c-58.6-9.3-118.3-9.3-176.8,0c0-9.9,0-19.9,0-29.8c58.6-9.3,118.3-9.3,176.8,0C183.1,127.7,183.1,137.7,183.1,147.6z"/>
		</g>
	</g>
	<polygon fill="#FFFFFF" stroke="#106580" stroke-width="3.5918" stroke-linejoin="round" stroke-miterlimit="10" points="
		94.6,166.7 88.1,170.2 89.3,162.9 84.1,157.8 91.3,156.7 94.6,150.1 97.9,156.7 105.1,157.8 99.9,162.9 101.1,170.2 	"/>
	<g>
		<path fill="none" d="M6.2,138.9c58.6-9.3,118.3-9.3,176.8,0"/>
		<text transform="matrix(0.9915 -0.1303 0.1303 0.9915 15.6538 137.4898)"><tspan x="0" y="0" fill="#DA5F58" font-family="'GothamRounded-Bold'" font-size="16.1402">E</tspan><tspan x="11.4" y="0" fill="#DA5F58" font-family="'GothamRounded-Bold'" font-size="16.1402" rotate="1.3">N</tspan><tspan x="24.7" y="0.3" fill="#DA5F58" font-family="'GothamRounded-Bold'" font-size="16.1402" rotate="2.5">T</tspan><tspan x="35.8" y="0.8" fill="#DA5F58" font-family="'GothamRounded-Bold'" font-size="16.1402" rotate="3.7">R</tspan><tspan x="48" y="1.6" fill="#DA5F58" font-family="'GothamRounded-Bold'" font-size="16.1402" rotate="4.9">A</tspan><tspan x="60.9" y="2.7" fill="#DA5F58" font-family="'GothamRounded-Bold'" font-size="16.1402" rotate="6.3">D</tspan><tspan x="73.5" y="4.1" fill="#DA5F58" font-family="'GothamRounded-Bold'" font-size="16.1402" rotate="7.5">A</tspan><tspan x="86.4" y="5.8" fill="#DA5F58" font-family="'GothamRounded-Bold'" font-size="16.1402" rotate="8.5"> </tspan><tspan x="91.8" y="6.6" fill="#DA5F58" font-family="'GothamRounded-Bold'" font-size="16.1402" rotate="9.3">F</tspan><tspan x="101.8" y="8.2" fill="#DA5F58" font-family="'GothamRounded-Bold'" font-size="16.1402" rotate="10.4">A</tspan><tspan x="114.5" y="10.6" fill="#DA5F58" font-family="'GothamRounded-Bold'" font-size="16.1402" rotate="11.8">N</tspan><tspan x="127.6" y="13.4" fill="#DA5F58" font-family="'GothamRounded-Bold'" font-size="16.1402" rotate="12.7"> </tspan><tspan x="132.9" y="14.5" fill="#DA5F58" font-family="'GothamRounded-Bold'" font-size="16.1402" rotate="13.6">F</tspan><tspan x="143.7" y="17.2" fill="#DA5F58" font-family="'GothamRounded-Bold'" font-size="16.1402" rotate="14.8">C</tspan></text>
	</g>
</g>
</svg>
