<?xml version="1.0" encoding="utf-8"?>
<!-- Generator: Adobe Illustrator 18.0.0, SVG Export Plug-In . SVG Version: 6.00 Build 0)  -->
<!DOCTYPE svg PUBLIC "-//W3C//DTD SVG 1.1//EN" "http://www.w3.org/Graphics/SVG/1.1/DTD/svg11.dtd">
<svg version="1.1" id="Layer_1" xmlns="http://www.w3.org/2000/svg" xmlns:xlink="http://www.w3.org/1999/xlink" x="0px" y="0px"
	 viewBox="0 0 390 170" enable-background="new 0 0 390 170" xml:space="preserve">
<g>
	<g>
		<path fill="#FFFFFF" d="M245.4,2.1h-95.6C104.2,2.1,67,39.3,67,85s37.2,82.9,82.9,82.9h95.6c45.7,0,82.9-37.2,82.9-82.9
			S291.1,2.1,245.4,2.1z M267.5,118.9H127.8V51.1h139.7V118.9z"/>
		<g>
			<g>
				<g>
					<path fill="#106580" d="M273.6,126.9H121.8c-1.1,0-1.9-0.9-1.9-1.9V45c0-1.1,0.9-1.9,1.9-1.9h151.8c1.1,0,1.9,0.9,1.9,1.9v80
						C275.5,126,274.6,126.9,273.6,126.9z M123.7,123.1h148V46.9h-148V123.1z"/>
					<path fill="#106580" d="M147.7,109.5h-25.9c-1.1,0-1.9-0.9-1.9-1.9V62.4c0-1.1,0.9-1.9,1.9-1.9h25.9c1.1,0,1.9,0.9,1.9,1.9
						v45.3C149.6,108.7,148.7,109.5,147.7,109.5z M123.7,105.7h22.1V64.3h-22.1V105.7z"/>
					<path fill="#106580" d="M135.4,98.8h-13.7c-1.1,0-1.9-0.9-1.9-1.9V73.1c0-1.1,0.9-1.9,1.9-1.9h13.7c1.1,0,1.9,0.9,1.9,1.9v23.9
						C137.3,98,136.5,98.8,135.4,98.8z M123.7,95h9.8V75h-9.8V95z"/>
					<path fill="#106580" d="M273.6,109.5h-25.9c-1.1,0-1.9-0.9-1.9-1.9V62.4c0-1.1,0.9-1.9,1.9-1.9h25.9c1.1,0,1.9,0.9,1.9,1.9
						v45.3C275.5,108.7,274.6,109.5,273.6,109.5z M249.6,105.7h22.1V64.3h-22.1V105.7z"/>
					<path fill="#106580" d="M273.6,98.8h-13.7c-1.1,0-1.9-0.9-1.9-1.9V73.1c0-1.1,0.9-1.9,1.9-1.9h13.7c1.1,0,1.9,0.9,1.9,1.9v23.9
						C275.5,98,274.6,98.8,273.6,98.8z M261.8,95h9.8V75h-9.8V95z"/>
					<path fill="#106580" d="M197.7,151.2c-1.1,0-1.9-0.9-1.9-1.9V20.7c0-1.1,0.9-1.9,1.9-1.9s1.9,0.9,1.9,1.9v128.6
						C199.6,150.4,198.7,151.2,197.7,151.2z"/>
					<path fill="#106580" d="M197.7,105c-11,0-20-9-20-20c0-11,9-20,20-20c11,0,20,9,20,20C217.7,96,208.7,105,197.7,105z
						 M197.7,68.8c-8.9,0-16.2,7.3-16.2,16.2c0,8.9,7.3,16.2,16.2,16.2c8.9,0,16.2-7.3,16.2-16.2C213.9,76.1,206.6,68.8,197.7,68.8z
						"/>
				</g>
				<path fill="#106580" d="M245.4,163.7h-95.6c-43.4,0-78.7-35.3-78.7-78.7c0-43.4,35.3-78.7,78.7-78.7h95.6
					c43.4,0,78.7,35.3,78.7,78.7S288.9,163.7,245.4,163.7z M149.9,10.1C108.6,10.1,75,43.7,75,85s33.6,74.9,74.9,74.9h95.6
					c41.3,0,74.9-33.6,74.9-74.9c0-41.3-33.6-74.9-74.9-74.9H149.9z"/>
				<path fill="#106580" d="M245.4,151.2h-95.6c-36.5,0-66.2-29.7-66.2-66.2s29.7-66.2,66.2-66.2h95.6c36.5,0,66.2,29.7,66.2,66.2
					S282,151.2,245.4,151.2z M149.9,22.6c-34.4,0-62.4,28-62.4,62.4c0,34.4,28,62.4,62.4,62.4h95.6c34.4,0,62.4-28,62.4-62.4
					c0-34.4-28-62.4-62.4-62.4H149.9z"/>
				<path fill="#106580" d="M284.6,138c-0.5,0-1-0.2-1.3-0.6l-11.1-11.1c-0.7-0.7-0.7-2,0-2.7c0.7-0.7,2-0.7,2.7,0l11.1,11.1
					c0.7,0.7,0.7,2,0,2.7C285.6,137.8,285.1,138,284.6,138z"/>
				<path fill="#106580" d="M273.6,46.9c-0.5,0-1-0.2-1.3-0.6c-0.7-0.7-0.7-2,0-2.7l11-11c0.7-0.7,2-0.7,2.7,0c0.7,0.7,0.7,2,0,2.7
					l-11,11C274.5,46.7,274,46.9,273.6,46.9z"/>
				<path fill="#106580" d="M121.8,46.9c-0.5,0-1-0.2-1.3-0.6l-11-11c-0.7-0.7-0.7-2,0-2.7c0.7-0.7,2-0.7,2.7,0l11,11
					c0.7,0.7,0.7,2,0,2.7C122.8,46.7,122.3,46.9,121.8,46.9z"/>
				<path fill="#106580" d="M110.7,138c-0.5,0-1-0.2-1.3-0.6c-0.7-0.7-0.7-2,0-2.7l11.1-11.1c0.7-0.7,2-0.7,2.7,0
					c0.7,0.7,0.7,2,0,2.7l-11.1,11.1C111.7,137.8,111.2,138,110.7,138z"/>
				<path fill="#106580" d="M121.8,86.9H85.6c-1.1,0-1.9-0.9-1.9-1.9c0-1.1,0.9-1.9,1.9-1.9h36.2c1.1,0,1.9,0.9,1.9,1.9
					C123.7,86.1,122.8,86.9,121.8,86.9z"/>
				<path fill="#106580" d="M309.8,86.9h-36.2c-1.1,0-1.9-0.9-1.9-1.9c0-1.1,0.9-1.9,1.9-1.9h36.2c1.1,0,1.9,0.9,1.9,1.9
					C311.7,86.1,310.8,86.9,309.8,86.9z"/>
			</g>
		</g>
	</g>
	<g>
		<path fill="#DA5F58" d="M11.6,68.1l-4,1.2c-0.4,0.1-0.9,0.2-1.2,0.2c-1.6,0-3-1.3-3-2.9c0-1.4,0.9-2.6,2.3-2.9l5.9-1.9
			c1.3-0.4,2.3-0.6,3.3-0.6H15c1.9,0,3.4,1.5,3.4,3.4v32.9c0,1.9-1.5,3.4-3.4,3.4c-1.8,0-3.4-1.5-3.4-3.4V68.1z"/>
		<path fill="#DA5F58" d="M26.8,94l12-10.2c5.3-4.5,7.3-7,7.3-10.5c0-3.8-2.7-6.1-6.3-6.1c-3.1,0-5.3,1.4-7.7,4.3
			c-0.5,0.6-1.3,1.1-2.4,1.1c-1.7,0-3.1-1.4-3.1-3.1c0-0.7,0.3-1.5,0.8-2.1c3.2-4,6.8-6.3,12.9-6.3c7.6,0,12.9,4.7,12.9,11.6v0.1
			c0,6.1-3.2,9.5-10.1,15.1l-8,6.7h15.8c1.7,0,3,1.3,3,3s-1.3,3-3,3H28.7c-2.1,0-3.7-1.2-3.7-3.2C25,96,25.6,94.9,26.8,94z"/>
	</g>
	<path fill="#DA5F58" d="M375.1,106.5c-0.5,0-1-0.1-1.4-0.3l-12.6-6.6l-12.6,6.6c-1.2,0.6-2.8,0.3-3.7-0.7c-0.6-0.7-0.8-1.5-0.7-2.4
		l2.4-14L336.4,79c-0.8-0.8-1.1-2-0.8-3c0.4-1.1,1.3-1.9,2.4-2l14.1-2l6.3-12.8c0.5-1,1.5-1.7,2.7-1.7s2.2,0.6,2.7,1.7l6.3,12.8
		l14.1,2c1.1,0.2,2,0.9,2.4,2s0.1,2.2-0.8,3l-10.2,9.9l2.4,14c0.1,0.9-0.1,1.7-0.7,2.4C376.8,106.1,375.9,106.5,375.1,106.5z
		 M340.3,77.5l9.3,9.1c0.7,0.7,1,1.7,0.9,2.6l-2.2,12.8l11.5-6c0.8-0.4,1.9-0.4,2.8,0l11.5,6l-2.2-12.8c-0.2-1,0.2-1.9,0.9-2.6
		l9.3-9.1L369,75.6c-1-0.1-1.8-0.7-2.2-1.6l-5.7-11.6L355.3,74c-0.4,0.9-1.3,1.5-2.2,1.6L340.3,77.5z"/>
</g>
</svg>
