<?xml version="1.0" encoding="utf-8"?>
<!-- Generator: Adobe Illustrator 18.0.0, SVG Export Plug-In . SVG Version: 6.00 Build 0)  -->
<!DOCTYPE svg PUBLIC "-//W3C//DTD SVG 1.1//EN" "http://www.w3.org/Graphics/SVG/1.1/DTD/svg11.dtd">
<svg version="1.1" id="Layer_1" xmlns="http://www.w3.org/2000/svg" xmlns:xlink="http://www.w3.org/1999/xlink" x="0px" y="0px"
	 viewBox="0 0 270 145" enable-background="new 0 0 270 145" xml:space="preserve">
<g>
	<path fill="#2F94CA" d="M83,97.4c2.1-3.2,6.3-4.1,9.5-2l7.6-11.6L33,40.3l-7.6,11.6c3.2,2.1,4.1,6.3,2,9.5s-6.3,4.1-9.5,2L9.6,76.1
		l67,43.6l8.3-12.8C81.8,104.9,80.9,100.6,83,97.4z"/>
	<path fill="#DA5F58" d="M101.9,68.5c2.1-3.2,6.3-4.1,9.5-2l7.6-11.6L40.3,3.7l-7.6,11.6c3.2,2.1,4.1,6.3,2,9.5
		c-2.1,3.2-6.3,4.1-9.5,2L17,39.6l78.6,51.3l8.3-12.8C100.7,76,99.8,71.7,101.9,68.5z"/>
	<path fill="#106580" d="M209,30.5h-73.9H61.2c-6.7,0-12.1,5.4-12.1,12.1v86.7c0,6.7,5.4,12.1,12.1,12.1h73.9H209
		c6.7,0,12.1-5.4,12.1-12.1V42.6C221,35.9,215.6,30.5,209,30.5z"/>
	<path fill="#FFFFFF" d="M209,37.1h-73.9h-0.7H61.2c-3,0-5.5,2.5-5.5,5.5v86.7c0,3,2.5,5.5,5.5,5.5h73.2h0.7H209
		c3,0,5.5-2.5,5.5-5.5V42.6C214.5,39.5,212,37.1,209,37.1z"/>
	<g>
		<path fill="#C4C5C7" d="M135.1,42.1c-0.3,0-0.5-0.1-0.7-0.3c-0.2-0.2-0.3-0.4-0.3-0.7c0-0.3,0.1-0.5,0.3-0.7
			c0.4-0.4,1.1-0.4,1.4,0c0.2,0.2,0.3,0.4,0.3,0.7c0,0.3-0.1,0.5-0.3,0.7C135.6,42,135.4,42.1,135.1,42.1z"/>
		<path fill="#C4C5C7" d="M134.1,126.9c0-0.5,0.4-1,1-1l0,0c0.6,0,1,0.5,1,1l0,0c0,0.6-0.4,1-1,1l0,0
			C134.5,127.9,134.1,127.5,134.1,126.9z M134.1,121.9c0-0.5,0.4-1,1-1l0,0c0.6,0,1,0.5,1,1l0,0c0,0.5-0.4,1-1,1l0,0
			C134.5,122.9,134.1,122.4,134.1,121.9z M134.1,116.8c0-0.5,0.4-1,1-1l0,0c0.6,0,1,0.5,1,1l0,0c0,0.5-0.4,1-1,1l0,0
			C134.5,117.8,134.1,117.4,134.1,116.8z M134.1,111.8c0-0.5,0.4-1,1-1l0,0c0.6,0,1,0.5,1,1l0,0c0,0.5-0.4,1-1,1l0,0
			C134.5,112.8,134.1,112.3,134.1,111.8z M134.1,106.7c0-0.6,0.4-1,1-1l0,0c0.6,0,1,0.5,1,1l0,0c0,0.5-0.4,1-1,1l0,0
			C134.5,107.7,134.1,107.3,134.1,106.7z M134.1,101.7c0-0.5,0.4-1,1-1l0,0c0.6,0,1,0.5,1,1l0,0c0,0.5-0.4,1-1,1l0,0
			C134.5,102.7,134.1,102.2,134.1,101.7z M134.1,96.6c0-0.6,0.4-1,1-1l0,0c0.6,0,1,0.4,1,1l0,0c0,0.6-0.4,1-1,1l0,0
			C134.5,97.6,134.1,97.2,134.1,96.6z M134.1,91.6c0-0.6,0.4-1,1-1l0,0c0.6,0,1,0.4,1,1l0,0c0,0.5-0.4,1-1,1l0,0
			C134.5,92.6,134.1,92.1,134.1,91.6z M134.1,86.5c0-0.5,0.4-1,1-1l0,0c0.6,0,1,0.5,1,1l0,0c0,0.6-0.4,1-1,1l0,0
			C134.5,87.5,134.1,87.1,134.1,86.5z M134.1,81.5c0-0.6,0.4-1,1-1l0,0c0.6,0,1,0.4,1,1l0,0c0,0.5-0.4,1-1,1l0,0
			C134.5,82.5,134.1,82,134.1,81.5z M134.1,76.4c0-0.5,0.4-1,1-1l0,0c0.6,0,1,0.5,1,1l0,0c0,0.6-0.4,1-1,1l0,0
			C134.5,77.4,134.1,77,134.1,76.4z M134.1,71.4c0-0.5,0.4-1,1-1l0,0c0.6,0,1,0.5,1,1l0,0c0,0.6-0.4,1-1,1l0,0
			C134.5,72.4,134.1,72,134.1,71.4z M134.1,66.4c0-0.5,0.4-1,1-1l0,0c0.6,0,1,0.5,1,1l0,0c0,0.6-0.4,1-1,1l0,0
			C134.5,67.4,134.1,66.9,134.1,66.4z M134.1,61.3c0-0.5,0.4-1,1-1l0,0c0.6,0,1,0.5,1,1l0,0c0,0.5-0.4,1-1,1l0,0
			C134.5,62.3,134.1,61.9,134.1,61.3z M134.1,56.3c0-0.6,0.4-1,1-1l0,0c0.6,0,1,0.4,1,1l0,0c0,0.6-0.4,1-1,1l0,0
			C134.5,57.3,134.1,56.8,134.1,56.3z M134.1,51.2c0-0.6,0.4-1,1-1l0,0c0.6,0,1,0.4,1,1l0,0c0,0.5-0.4,1-1,1l0,0
			C134.5,52.2,134.1,51.8,134.1,51.2z M134.1,46.2c0-0.5,0.4-1,1-1l0,0c0.6,0,1,0.5,1,1l0,0c0,0.6-0.4,1-1,1l0,0
			C134.5,47.2,134.1,46.7,134.1,46.2z"/>
		<path fill="#C4C5C7" d="M135.1,133c-0.3,0-0.5-0.1-0.7-0.3c-0.2-0.2-0.3-0.4-0.3-0.7c0-0.3,0.1-0.5,0.3-0.7c0.4-0.4,1.1-0.4,1.4,0
			c0.2,0.2,0.3,0.4,0.3,0.7c0,0.3-0.1,0.5-0.3,0.7C135.6,132.8,135.4,133,135.1,133z"/>
	</g>
	<rect x="96.1" y="54.1" fill="#E4E5E6" width="26.1" height="4.7"/>
	<rect x="96.1" y="65.8" fill="#E4E5E6" width="26.1" height="4.7"/>
	<rect x="70" y="77.4" fill="#E4E5E6" width="52.2" height="4.7"/>
	<rect x="70" y="89" fill="#E4E5E6" width="52.2" height="4.7"/>
	<rect x="70" y="100.7" fill="#E4E5E6" width="52.2" height="4.7"/>
	<rect x="70" y="112.3" fill="#E4E5E6" width="52.2" height="4.7"/>
	<rect x="147.1" y="54.1" fill="#E4E5E6" width="52.2" height="4.7"/>
	<rect x="147.1" y="65.8" fill="#E4E5E6" width="52.2" height="4.7"/>
	<rect x="147.1" y="77.4" fill="#E4E5E6" width="52.2" height="4.7"/>
	<rect x="147.1" y="89" fill="#E4E5E6" width="52.2" height="4.7"/>
	<g>
		<path fill="#DA5F58" d="M194.9,79c-0.7,0-1.4-0.3-2-0.5c-0.5-0.2-1-0.4-1.3-0.4c-0.4,0-0.9,0.2-1.3,0.4c-0.8,0.3-1.7,0.6-2.6,0.5
			c-1-0.2-1.6-0.9-2.2-1.6c-0.3-0.4-0.7-0.7-1-0.9c-0.3-0.2-0.8-0.2-1.3-0.2c-0.8-0.1-1.8-0.1-2.6-0.7c-0.8-0.6-1-1.5-1.3-2.3
			c-0.1-0.5-0.3-1-0.5-1.3c-0.2-0.3-0.7-0.5-1.1-0.8c-0.7-0.4-1.6-0.9-2-1.8c-0.4-0.9-0.3-1.8-0.1-2.6c0.1-0.5,0.2-1,0.1-1.4
			c-0.1-0.3-0.4-0.7-0.6-1.1c-0.5-0.7-1-1.5-1-2.5s0.6-1.8,1-2.5c0.3-0.4,0.6-0.8,0.6-1.1c0.1-0.3,0-0.9-0.1-1.4
			c-0.1-0.8-0.3-1.8,0.1-2.6c0.4-0.9,1.3-1.4,2-1.8c0.4-0.2,0.9-0.5,1.1-0.8c0.2-0.3,0.4-0.8,0.5-1.3c0.2-0.8,0.5-1.7,1.3-2.3
			c0.8-0.6,1.7-0.7,2.6-0.7c0.5,0,1-0.1,1.3-0.2c0.3-0.1,0.6-0.5,1-0.9c0.6-0.6,1.2-1.3,2.2-1.6c0.9-0.2,1.8,0.1,2.6,0.5
			c0.5,0.2,1,0.4,1.3,0.4s0.9-0.2,1.3-0.4c0.8-0.3,1.7-0.6,2.6-0.5c1,0.2,1.6,0.9,2.2,1.6c0.3,0.4,0.7,0.7,1,0.9
			c0.3,0.2,0.8,0.2,1.3,0.2c0.8,0.1,1.8,0.1,2.6,0.7c0.8,0.6,1,1.5,1.3,2.3c0.1,0.5,0.3,1,0.5,1.3c0.2,0.3,0.7,0.5,1.1,0.8
			c0.7,0.4,1.6,0.9,2,1.8c0.4,0.9,0.3,1.8,0.1,2.6c-0.1,0.5-0.2,1-0.1,1.4c0.1,0.3,0.4,0.7,0.6,1.1c0.5,0.7,1,1.5,1,2.5
			s-0.6,1.8-1,2.5c-0.3,0.4-0.6,0.8-0.6,1.1c-0.1,0.3,0,0.9,0.1,1.4c0.1,0.8,0.3,1.8-0.1,2.6c-0.4,0.9-1.3,1.4-2,1.8
			c-0.4,0.2-0.9,0.5-1.1,0.8c-0.2,0.3-0.4,0.8-0.5,1.3c-0.2,0.8-0.5,1.7-1.3,2.3c-0.8,0.6-1.7,0.7-2.6,0.7c-0.5,0-1,0.1-1.3,0.2
			c-0.3,0.1-0.7,0.5-1,0.9c-0.6,0.6-1.2,1.3-2.2,1.6C195.3,78.9,195.1,79,194.9,79z M191.6,76.1c0.7,0,1.4,0.3,2.1,0.5
			c0.5,0.2,1.1,0.4,1.4,0.4c0.4-0.1,0.8-0.5,1.2-1c0.5-0.5,0.9-1,1.6-1.3c0.7-0.3,1.4-0.4,2.1-0.4c0.6,0,1.2-0.1,1.5-0.3
			c0.3-0.2,0.5-0.8,0.6-1.4c0.2-0.6,0.4-1.3,0.9-1.9c0.5-0.6,1.1-0.9,1.7-1.3c0.5-0.3,1-0.6,1.2-0.9c0.2-0.3,0.1-0.9,0-1.5
			c-0.1-0.7-0.2-1.4-0.1-2.1c0.2-0.7,0.6-1.3,0.9-1.8c0.3-0.5,0.7-1,0.7-1.4s-0.4-0.9-0.7-1.4c-0.4-0.6-0.8-1.1-0.9-1.8
			c-0.2-0.7,0-1.5,0.1-2.1c0.1-0.6,0.2-1.2,0-1.5c-0.2-0.3-0.7-0.6-1.2-0.9c-0.6-0.3-1.2-0.7-1.7-1.3c-0.5-0.6-0.7-1.3-0.9-1.9
			c-0.2-0.6-0.3-1.1-0.6-1.4c-0.3-0.2-0.9-0.3-1.5-0.3c-0.7,0-1.4-0.1-2.1-0.4c-0.6-0.3-1.1-0.8-1.6-1.3c-0.4-0.4-0.8-0.9-1.2-1
			c-0.3-0.1-0.9,0.1-1.4,0.4c-0.6,0.2-1.3,0.5-2.1,0.5s-1.4-0.3-2.1-0.5c-0.5-0.2-1.1-0.4-1.4-0.4c-0.4,0.1-0.8,0.5-1.2,1
			c-0.5,0.5-0.9,1-1.6,1.3c-0.7,0.3-1.4,0.4-2.1,0.4c-0.6,0-1.2,0.1-1.5,0.3c-0.3,0.2-0.5,0.8-0.6,1.4c-0.2,0.6-0.4,1.3-0.9,1.9
			c-0.5,0.6-1.1,0.9-1.7,1.3c-0.5,0.3-1,0.6-1.2,0.9c-0.2,0.3-0.1,0.9,0,1.5c0.1,0.7,0.2,1.4,0.1,2.1c-0.2,0.7-0.6,1.3-0.9,1.8
			c-0.3,0.5-0.7,1-0.7,1.4c0,0.4,0.4,0.9,0.7,1.4c0.4,0.6,0.8,1.1,0.9,1.8c0.2,0.7,0,1.5-0.1,2.1c-0.1,0.6-0.2,1.2,0,1.5
			c0.2,0.3,0.7,0.6,1.2,0.9c0.6,0.3,1.2,0.7,1.7,1.3c0.5,0.6,0.7,1.3,0.9,1.9c0.2,0.6,0.3,1.1,0.6,1.4c0.3,0.2,0.9,0.3,1.5,0.3
			c0.7,0,1.4,0.1,2.1,0.4c0.6,0.3,1.1,0.8,1.6,1.3c0.4,0.4,0.8,0.9,1.2,1c0.3,0.1,0.9-0.1,1.4-0.4C190.2,76.4,190.9,76.1,191.6,76.1
			z"/>
		<path fill="#DA5F58" d="M191.6,72.7c-6.1,0-11-4.9-11-11s4.9-11,11-11s11,4.9,11,11S197.7,72.7,191.6,72.7z M191.6,52.7
			c-5,0-9,4-9,9s4,9,9,9s9-4,9-9S196.6,52.7,191.6,52.7z"/>
	</g>
	<polygon fill="#28C5B3" points="171.8,125.8 159.5,113.5 166.6,106.4 171.8,111.6 196.6,86.9 203.7,93.9 	"/>
	<rect x="70" y="54.1" fill="#E4E5E6" width="17.8" height="16.3"/>
</g>
</svg>
