<?xml version="1.0" encoding="utf-8"?>
<!-- Generator: Adobe Illustrator 18.0.0, SVG Export Plug-In . SVG Version: 6.00 Build 0)  -->
<!DOCTYPE svg PUBLIC "-//W3C//DTD SVG 1.1//EN" "http://www.w3.org/Graphics/SVG/1.1/DTD/svg11.dtd">
<svg version="1.1" id="Layer_1" xmlns="http://www.w3.org/2000/svg" xmlns:xlink="http://www.w3.org/1999/xlink" x="0px" y="0px"
	 viewBox="0 0 170 170" enable-background="new 0 0 170 170" xml:space="preserve">
<g>
	<path fill="#FFFFFF" d="M147.6,35.2c-9.1-11.4-21-20.1-34.7-25.1c-18.1-6.8-37.5-6.8-55.6,0c-13.7,5.2-25.6,13.7-34.7,25.1
		C11,49.4,5,66.6,5,85c0,0.7,0,1.2,0,2V88l0,0l0,0c0.7,14.8,5.3,29,13.3,41.1C29,145,45,156.6,63.5,161.8c7.1,2.1,14.4,3.2,21.5,3.2
		c7.1,0,14.4-1.1,21.7-3c18.5-5.2,34.5-16.9,45.2-32.9c8-12.1,12.6-26.3,13.2-40.9l0,0v-1.1c0-0.7,0-1.4,0-2.1
		C165,66.6,159,49.4,147.6,35.2z"/>
	<g>
		<g>
			<path fill="#106580" d="M141.8,39.8c-8.2-10.3-19-18.2-31.5-22.8c-16.5-6.1-34-6.1-50.5,0c-12.4,4.7-23.2,12.4-31.5,22.8
				c-10.5,12.9-16,28.6-16,45.2c0,0.6,0,1.1,0,1.8v1l0,0l0,0C13,101.1,17.2,114,24.5,125c9.7,14.5,24.2,25,41,29.7
				c6.5,1.9,13.1,2.9,19.5,2.9c6.5,0,13.1-1,19.7-2.7c16.8-4.7,31.3-15.3,41-29.9c7.3-11,11.5-23.9,11.9-37.1l0,0v-1
				c0-0.6,0-1.3,0-1.9C157.6,68.3,152.1,52.7,141.8,39.8z M141.3,120.3h-26.8l-8.4-11.5c1.8-5.5,8.2-25.5,10-31l13.4-4.4l21.6,15.7
				C150.7,100.3,147.1,110.9,141.3,120.3z M55.5,120.3H28.7c-5.8-9.4-9.4-20-10-31.1l21.6-15.7l13.4,4.4l10,31L55.5,120.3z
				 M29.6,48.2l6.6,20.7L18.5,81.7C19.2,69.6,22.9,58.2,29.6,48.2z M69.3,106.4l-9.7-29.7L85,58.3l25.2,18.4
				c-5.6,17.1-8.2,25.5-9.5,29.7H69.3L69.3,106.4z M133.7,69l6.6-20.7c6.6,10,10.5,21.5,11,33.6L133.7,69z M136,42.2l-8.2,25.5
				L114.4,72L88.1,53V39l21.6-15.7C119.9,27.3,128.9,33.8,136,42.2z M102.6,20.9L85,33.6L67.4,20.9C79,17.7,91,17.7,102.6,20.9z
				 M60.3,23.3L81.9,39v14L55.6,72l-13.4-4.4L34,42.2C41.1,33.8,50.1,27.3,60.3,23.3z M33,126.4h21.8l6.8,20.7
				C50.3,142.9,40.5,135.8,33,126.4z M68.7,149.3l-8.2-25.5l8.4-11.5h32.4l8.4,11.5l-8.2,25.5C90.5,152.1,79.7,152.3,68.7,149.3z
				 M108.6,147.1l6.6-20.7H137C129.5,135.8,119.7,142.9,108.6,147.1z"/>
		</g>
		<g>
			<g>
				<path fill="#DA5F58" d="M22.2,75.4c1.1-7.1,3.3-13.8,6.6-20l3.9,12.3L22.2,75.4z"/>
				<path fill="#DA5F58" d="M71.5,103.4l-8.3-25.5L85,62l21.6,15.8c-4.4,13.3-6.8,21.1-8.2,25.6H71.5z"/>
				<path fill="#DA5F58" d="M137.3,67.8l3.9-12.2c3.3,6.3,5.5,13,6.5,19.9L137.3,67.8z"/>
				<path fill="#DA5F58" d="M74.6,22.4c3.5-0.6,7-0.9,10.4-0.9c3.5,0,7,0.3,10.4,0.9L85,29.9L74.6,22.4z"/>
				<path fill="#DA5F58" d="M56.7,141.7c-6.3-3.1-12.1-7.3-17-12.3h13L56.7,141.7z"/>
				<path fill="#DA5F58" d="M117.4,129.4h13c-4.9,5-10.6,9.1-16.9,12.3L117.4,129.4z"/>
			</g>
		</g>
	</g>
</g>
</svg>
